<mxfile host="app.diagrams.net" modified="2022-07-15T03:10:52.421Z" agent="5.0 (Macintosh; Intel Mac OS X 10_15_7) AppleWebKit/605.1.15 (KHTML, like Gecko) Version/15.1 Safari/605.1.15" etag="tgCVtSFlrwBEAl7f1rel" version="20.1.1" type="github">
  <diagram id="loXa2eF_kNvj-kHuExA8" name="Page-1">
    <mxGraphModel dx="1123" dy="656" grid="1" gridSize="10" guides="1" tooltips="1" connect="1" arrows="1" fold="1" page="1" pageScale="1" pageWidth="1169" pageHeight="1654" math="0" shadow="0">
      <root>
        <mxCell id="0" />
        <mxCell id="1" parent="0" />
        <mxCell id="rTcmpbw8vHKE7SJmRL7R-1" value="Pic A" style="whiteSpace=wrap;html=1;aspect=fixed;fillColor=#dae8fc;strokeColor=#6c8ebf;fontSize=28;" vertex="1" parent="1">
          <mxGeometry x="240" y="170" width="80" height="80" as="geometry" />
        </mxCell>
        <mxCell id="rTcmpbw8vHKE7SJmRL7R-2" value="Pic B" style="whiteSpace=wrap;html=1;aspect=fixed;fillColor=#dae8fc;strokeColor=#6c8ebf;fontSize=28;" vertex="1" parent="1">
          <mxGeometry x="350" y="170" width="80" height="80" as="geometry" />
        </mxCell>
        <mxCell id="rTcmpbw8vHKE7SJmRL7R-3" value="Pic C" style="whiteSpace=wrap;html=1;aspect=fixed;fillColor=#dae8fc;strokeColor=#6c8ebf;fontSize=28;" vertex="1" parent="1">
          <mxGeometry x="460" y="170" width="80" height="80" as="geometry" />
        </mxCell>
        <mxCell id="rTcmpbw8vHKE7SJmRL7R-4" value="Pic D" style="whiteSpace=wrap;html=1;aspect=fixed;fillColor=#dae8fc;strokeColor=#6c8ebf;fontSize=28;" vertex="1" parent="1">
          <mxGeometry x="570" y="170" width="80" height="80" as="geometry" />
        </mxCell>
        <mxCell id="rTcmpbw8vHKE7SJmRL7R-5" value="Pic E" style="whiteSpace=wrap;html=1;aspect=fixed;fillColor=#dae8fc;strokeColor=#6c8ebf;fontSize=28;" vertex="1" parent="1">
          <mxGeometry x="680" y="170" width="80" height="80" as="geometry" />
        </mxCell>
        <mxCell id="rTcmpbw8vHKE7SJmRL7R-6" value="" style="endArrow=none;html=1;rounded=0;fontSize=28;" edge="1" parent="1">
          <mxGeometry width="50" height="50" relative="1" as="geometry">
            <mxPoint x="450" y="260" as="sourcePoint" />
            <mxPoint x="450" y="100" as="targetPoint" />
          </mxGeometry>
        </mxCell>
        <mxCell id="rTcmpbw8vHKE7SJmRL7R-7" value="" style="endArrow=none;html=1;rounded=0;fontSize=28;" edge="1" parent="1">
          <mxGeometry width="50" height="50" relative="1" as="geometry">
            <mxPoint x="790" y="130" as="sourcePoint" />
            <mxPoint x="190" y="130" as="targetPoint" />
          </mxGeometry>
        </mxCell>
        <mxCell id="rTcmpbw8vHKE7SJmRL7R-8" value="&lt;font style=&quot;font-size: 20px;&quot;&gt;sale2&lt;/font&gt;" style="text;html=1;strokeColor=none;fillColor=none;align=center;verticalAlign=middle;whiteSpace=wrap;rounded=0;fontSize=28;" vertex="1" parent="1">
          <mxGeometry x="545" y="80" width="60" height="30" as="geometry" />
        </mxCell>
        <mxCell id="rTcmpbw8vHKE7SJmRL7R-9" value="&lt;font style=&quot;font-size: 20px;&quot;&gt;sale1&lt;/font&gt;" style="text;html=1;strokeColor=none;fillColor=none;align=center;verticalAlign=middle;whiteSpace=wrap;rounded=0;fontSize=28;" vertex="1" parent="1">
          <mxGeometry x="310" y="80" width="60" height="30" as="geometry" />
        </mxCell>
        <mxCell id="rTcmpbw8vHKE7SJmRL7R-10" value="" style="endArrow=classic;html=1;rounded=0;fontSize=20;" edge="1" parent="1">
          <mxGeometry width="50" height="50" relative="1" as="geometry">
            <mxPoint x="230" y="441" as="sourcePoint" />
            <mxPoint x="790" y="441" as="targetPoint" />
          </mxGeometry>
        </mxCell>
        <mxCell id="rTcmpbw8vHKE7SJmRL7R-11" value="&lt;span style=&quot;font-size: 20px;&quot;&gt;tokenId&lt;/span&gt;" style="text;html=1;strokeColor=none;fillColor=none;align=center;verticalAlign=middle;whiteSpace=wrap;rounded=0;fontSize=28;" vertex="1" parent="1">
          <mxGeometry x="710" y="401" width="60" height="30" as="geometry" />
        </mxCell>
        <mxCell id="rTcmpbw8vHKE7SJmRL7R-12" value="" style="endArrow=none;html=1;rounded=0;fontSize=20;" edge="1" parent="1">
          <mxGeometry width="50" height="50" relative="1" as="geometry">
            <mxPoint x="270" y="431" as="sourcePoint" />
            <mxPoint x="270" y="431" as="targetPoint" />
            <Array as="points">
              <mxPoint x="270" y="451" />
            </Array>
          </mxGeometry>
        </mxCell>
        <mxCell id="rTcmpbw8vHKE7SJmRL7R-13" value="" style="endArrow=none;html=1;rounded=0;fontSize=20;" edge="1" parent="1">
          <mxGeometry width="50" height="50" relative="1" as="geometry">
            <mxPoint x="310" y="431" as="sourcePoint" />
            <mxPoint x="310" y="431" as="targetPoint" />
            <Array as="points">
              <mxPoint x="310" y="451" />
            </Array>
          </mxGeometry>
        </mxCell>
        <mxCell id="rTcmpbw8vHKE7SJmRL7R-18" value="" style="endArrow=none;html=1;rounded=0;fontSize=20;" edge="1" parent="1">
          <mxGeometry width="50" height="50" relative="1" as="geometry">
            <mxPoint x="350" y="431" as="sourcePoint" />
            <mxPoint x="350" y="451" as="targetPoint" />
          </mxGeometry>
        </mxCell>
        <mxCell id="rTcmpbw8vHKE7SJmRL7R-19" value="" style="endArrow=none;html=1;rounded=0;fontSize=20;" edge="1" parent="1">
          <mxGeometry width="50" height="50" relative="1" as="geometry">
            <mxPoint x="390" y="451" as="sourcePoint" />
            <mxPoint x="390" y="431" as="targetPoint" />
          </mxGeometry>
        </mxCell>
        <mxCell id="rTcmpbw8vHKE7SJmRL7R-20" value="" style="endArrow=none;html=1;rounded=0;fontSize=20;" edge="1" parent="1">
          <mxGeometry width="50" height="50" relative="1" as="geometry">
            <mxPoint x="430" y="451" as="sourcePoint" />
            <mxPoint x="430" y="431" as="targetPoint" />
          </mxGeometry>
        </mxCell>
        <mxCell id="rTcmpbw8vHKE7SJmRL7R-21" value="&lt;font style=&quot;font-size: 20px;&quot;&gt;1&lt;/font&gt;" style="text;html=1;strokeColor=none;fillColor=none;align=center;verticalAlign=middle;whiteSpace=wrap;rounded=0;fontSize=28;" vertex="1" parent="1">
          <mxGeometry x="260" y="451" width="20" height="30" as="geometry" />
        </mxCell>
        <mxCell id="rTcmpbw8vHKE7SJmRL7R-22" value="&lt;font style=&quot;font-size: 20px;&quot;&gt;2&lt;/font&gt;" style="text;html=1;strokeColor=none;fillColor=none;align=center;verticalAlign=middle;whiteSpace=wrap;rounded=0;fontSize=28;" vertex="1" parent="1">
          <mxGeometry x="300" y="451" width="20" height="30" as="geometry" />
        </mxCell>
        <mxCell id="rTcmpbw8vHKE7SJmRL7R-23" value="&lt;font style=&quot;font-size: 20px;&quot;&gt;3&lt;/font&gt;" style="text;html=1;strokeColor=none;fillColor=none;align=center;verticalAlign=middle;whiteSpace=wrap;rounded=0;fontSize=28;" vertex="1" parent="1">
          <mxGeometry x="340" y="451" width="20" height="30" as="geometry" />
        </mxCell>
        <mxCell id="rTcmpbw8vHKE7SJmRL7R-24" value="&lt;font style=&quot;font-size: 20px;&quot;&gt;4&lt;/font&gt;" style="text;html=1;strokeColor=none;fillColor=none;align=center;verticalAlign=middle;whiteSpace=wrap;rounded=0;fontSize=28;" vertex="1" parent="1">
          <mxGeometry x="380" y="451" width="20" height="30" as="geometry" />
        </mxCell>
        <mxCell id="rTcmpbw8vHKE7SJmRL7R-25" value="&lt;font style=&quot;font-size: 20px;&quot;&gt;5&lt;/font&gt;" style="text;html=1;strokeColor=none;fillColor=none;align=center;verticalAlign=middle;whiteSpace=wrap;rounded=0;fontSize=28;" vertex="1" parent="1">
          <mxGeometry x="420" y="451" width="20" height="30" as="geometry" />
        </mxCell>
        <mxCell id="rTcmpbw8vHKE7SJmRL7R-26" value="" style="endArrow=classic;startArrow=classic;html=1;rounded=0;fontSize=20;entryX=0.5;entryY=1;entryDx=0;entryDy=0;" edge="1" parent="1" target="rTcmpbw8vHKE7SJmRL7R-1">
          <mxGeometry width="50" height="50" relative="1" as="geometry">
            <mxPoint x="270" y="430" as="sourcePoint" />
            <mxPoint x="540" y="350" as="targetPoint" />
          </mxGeometry>
        </mxCell>
        <mxCell id="rTcmpbw8vHKE7SJmRL7R-27" value="" style="endArrow=classic;startArrow=classic;html=1;rounded=0;fontSize=20;entryX=0.5;entryY=1;entryDx=0;entryDy=0;" edge="1" parent="1" target="rTcmpbw8vHKE7SJmRL7R-2">
          <mxGeometry width="50" height="50" relative="1" as="geometry">
            <mxPoint x="390" y="430" as="sourcePoint" />
            <mxPoint x="290" y="260" as="targetPoint" />
          </mxGeometry>
        </mxCell>
        <mxCell id="rTcmpbw8vHKE7SJmRL7R-28" value="" style="endArrow=classic;startArrow=classic;html=1;rounded=0;fontSize=20;entryX=0.5;entryY=1;entryDx=0;entryDy=0;" edge="1" parent="1" target="rTcmpbw8vHKE7SJmRL7R-3">
          <mxGeometry width="50" height="50" relative="1" as="geometry">
            <mxPoint x="310" y="430" as="sourcePoint" />
            <mxPoint x="300" y="270" as="targetPoint" />
          </mxGeometry>
        </mxCell>
        <mxCell id="rTcmpbw8vHKE7SJmRL7R-29" value="" style="endArrow=classic;startArrow=classic;html=1;rounded=0;fontSize=20;entryX=0.5;entryY=1;entryDx=0;entryDy=0;" edge="1" parent="1" target="rTcmpbw8vHKE7SJmRL7R-4">
          <mxGeometry width="50" height="50" relative="1" as="geometry">
            <mxPoint x="350" y="430" as="sourcePoint" />
            <mxPoint x="310" y="280" as="targetPoint" />
          </mxGeometry>
        </mxCell>
        <mxCell id="rTcmpbw8vHKE7SJmRL7R-30" value="" style="endArrow=classic;startArrow=classic;html=1;rounded=0;fontSize=20;entryX=0.5;entryY=1;entryDx=0;entryDy=0;" edge="1" parent="1" target="rTcmpbw8vHKE7SJmRL7R-5">
          <mxGeometry width="50" height="50" relative="1" as="geometry">
            <mxPoint x="430" y="430" as="sourcePoint" />
            <mxPoint x="320" y="290" as="targetPoint" />
          </mxGeometry>
        </mxCell>
        <mxCell id="rTcmpbw8vHKE7SJmRL7R-32" value="" style="endArrow=none;html=1;rounded=0;fontSize=28;fontColor=#000000;strokeColor=#CC0000;" edge="1" parent="1">
          <mxGeometry width="50" height="50" relative="1" as="geometry">
            <mxPoint x="991.4285714285714" y="320" as="sourcePoint" />
            <mxPoint x="40" y="320" as="targetPoint" />
          </mxGeometry>
        </mxCell>
        <mxCell id="rTcmpbw8vHKE7SJmRL7R-33" value="" style="strokeWidth=2;html=1;shape=mxgraph.flowchart.annotation_2;align=left;labelPosition=right;pointerEvents=1;fontSize=20;fontColor=#000000;direction=west;" vertex="1" parent="1">
          <mxGeometry x="850" y="130" width="50" height="170" as="geometry" />
        </mxCell>
        <mxCell id="rTcmpbw8vHKE7SJmRL7R-34" value="" style="strokeWidth=2;html=1;shape=mxgraph.flowchart.annotation_2;align=left;labelPosition=right;pointerEvents=1;fontSize=20;fontColor=#000000;direction=west;" vertex="1" parent="1">
          <mxGeometry x="850" y="331" width="50" height="159" as="geometry" />
        </mxCell>
        <mxCell id="rTcmpbw8vHKE7SJmRL7R-35" value="&lt;span style=&quot;font-size: 20px;&quot;&gt;&lt;i&gt;let this &amp;nbsp;be handled freely by ERC721A. We&amp;nbsp;don&#39;t care what id it gives to each Pic&lt;/i&gt;&lt;/span&gt;" style="text;html=1;strokeColor=none;fillColor=none;align=center;verticalAlign=middle;whiteSpace=wrap;rounded=0;fontSize=28;" vertex="1" parent="1">
          <mxGeometry x="900" y="346.5" width="220" height="134.5" as="geometry" />
        </mxCell>
        <mxCell id="rTcmpbw8vHKE7SJmRL7R-36" value="&lt;span style=&quot;font-size: 20px;&quot;&gt;&lt;i&gt;this is handled by client side&lt;/i&gt;&lt;/span&gt;" style="text;html=1;strokeColor=none;fillColor=none;align=center;verticalAlign=middle;whiteSpace=wrap;rounded=0;fontSize=28;" vertex="1" parent="1">
          <mxGeometry x="910" y="189.31" width="160" height="51.37" as="geometry" />
        </mxCell>
        <mxCell id="rTcmpbw8vHKE7SJmRL7R-38" value="&lt;font style=&quot;font-size: 20px;&quot;&gt;Client side&lt;/font&gt;" style="text;html=1;strokeColor=none;fillColor=none;align=center;verticalAlign=middle;whiteSpace=wrap;rounded=0;fontSize=28;fontStyle=1" vertex="1" parent="1">
          <mxGeometry x="40" y="200" width="100" height="65" as="geometry" />
        </mxCell>
        <mxCell id="rTcmpbw8vHKE7SJmRL7R-39" value="&lt;font style=&quot;font-size: 20px;&quot;&gt;Contract side&lt;/font&gt;" style="text;html=1;strokeColor=none;fillColor=none;align=center;verticalAlign=middle;whiteSpace=wrap;rounded=0;fontSize=28;fontStyle=1" vertex="1" parent="1">
          <mxGeometry x="40" y="346.5" width="100" height="65" as="geometry" />
        </mxCell>
      </root>
    </mxGraphModel>
  </diagram>
</mxfile>
